# xmcd
#
# Track frame offsets:
#	150
#	14174
#	33525
#	47542
#	62143
#	76517
#
# Disc length: 1225 seconds
#
# Revision: 1
# Processed by: cddbd v1.5.1PL0 Copyright (c) Steve Scherf et al.
# Submitted via: audiograbber 1.83.01
#
DISCID=4304c706
DTITLE=Wrinkle Neck Mules - Liza EP
DYEAR=2005
DGENRE=Alternate Country
TTITLE0=Liza
TTITLE1=Stolen Horses
TTITLE2=17 Miles Of Bourbon (Live)
TTITLE3=No Consolation (Live)
TTITLE4=Why You Been Gone So Long (Live)
TTITLE5=Discarded (Live)
EXTD=
EXTT0=
EXTT1=
EXTT2=
EXTT3=
EXTT4=
EXTT5=
PLAYORDER=
